<?xml version="1.0" encoding="utf-8"?>
<!-- created with bpmn-js / http://bpmn.io -->
<!DOCTYPE svg PUBLIC "-//W3C//DTD SVG 1.1//EN" "http://www.w3.org/Graphics/SVG/1.1/DTD/svg11.dtd">
<svg xmlns="http://www.w3.org/2000/svg" xmlns:xlink="http://www.w3.org/1999/xlink" width="906" height="660" viewBox="30 100 906 660" version="1.1"><g class="djs-group"><g class="djs-element djs-shape" data-element-id="Lane_3" style="display: block;" transform="matrix(1 0 0 1 30 540)"><g class="djs-visual"><rect x="0" y="0" width="906" height="220" rx="0" ry="0" style="stroke-linecap: round; stroke-linejoin: round; stroke: rgb(244, 180, 0); stroke-width: 1.5px; fill: rgb(255, 248, 225); fill-opacity: 0.25;"/><text lineHeight="1.2" class="djs-label" style="font-family: Arial, sans-serif; font-size: 12px; font-weight: normal; fill: rgb(244, 180, 0);" transform="matrix(-1.83697e-16 -1 1 -1.83697e-16 0 220)"><tspan x="93.4423828125" y="18.6">кто то</tspan></text></g><rect class="djs-hit djs-hit-no-move" x="0" y="0" width="906" height="220" style="fill: none; stroke-opacity: 0; stroke: white; stroke-width: 15px;"/><rect class="djs-hit djs-hit-click-stroke" x="0" y="0" width="906" height="220" style="fill: none; stroke-opacity: 0; stroke: white; stroke-width: 15px;"/><rect class="djs-hit djs-hit-all" x="0" y="0" width="30" height="220" style="fill: none; stroke-opacity: 0; stroke: white; stroke-width: 15px;"/><rect x="-5" y="-5" rx="4" width="916" height="230" class="djs-outline" style="fill: none;"/></g></g><g class="djs-group"><g class="djs-element djs-shape" data-element-id="Lane_2" style="display: block;" transform="matrix(1 0 0 1 30 320)"><g class="djs-visual"><rect x="0" y="0" width="906" height="220" rx="0" ry="0" style="stroke-linecap: round; stroke-linejoin: round; stroke: rgb(15, 157, 88); stroke-width: 1.5px; fill: rgb(232, 245, 233); fill-opacity: 0.25;"/><text lineHeight="1.2" class="djs-label" style="font-family: Arial, sans-serif; font-size: 12px; font-weight: normal; fill: rgb(15, 157, 88);" transform="matrix(-1.83697e-16 -1 1 -1.83697e-16 0 220)"><tspan x="96.609375" y="18.6">влад</tspan></text></g><rect class="djs-hit djs-hit-no-move" x="0" y="0" width="906" height="220" style="fill: none; stroke-opacity: 0; stroke: white; stroke-width: 15px;"/><rect class="djs-hit djs-hit-click-stroke" x="0" y="0" width="906" height="220" style="fill: none; stroke-opacity: 0; stroke: white; stroke-width: 15px;"/><rect class="djs-hit djs-hit-all" x="0" y="0" width="30" height="220" style="fill: none; stroke-opacity: 0; stroke: white; stroke-width: 15px;"/><rect x="-5" y="-5" rx="4" width="916" height="230" class="djs-outline" style="fill: none;"/></g></g><g class="djs-group"><g class="djs-element djs-shape" data-element-id="Lane_1" style="display: block;" transform="matrix(1 0 0 1 30 100)"><g class="djs-visual"><rect x="0" y="0" width="906" height="220" rx="0" ry="0" style="stroke-linecap: round; stroke-linejoin: round; stroke: rgb(26, 115, 232); stroke-width: 1.5px; fill: rgb(230, 244, 255); fill-opacity: 0.25;"/><text lineHeight="1.2" class="djs-label" style="font-family: Arial, sans-serif; font-size: 12px; font-weight: normal; fill: rgb(26, 115, 232);" transform="matrix(-1.83697e-16 -1 1 -1.83697e-16 0 220)"><tspan x="97.09375" y="18.6">даня</tspan></text></g><rect class="djs-hit djs-hit-no-move" x="0" y="0" width="906" height="220" style="fill: none; stroke-opacity: 0; stroke: white; stroke-width: 15px;"/><rect class="djs-hit djs-hit-click-stroke" x="0" y="0" width="906" height="220" style="fill: none; stroke-opacity: 0; stroke: white; stroke-width: 15px;"/><rect class="djs-hit djs-hit-all" x="0" y="0" width="30" height="220" style="fill: none; stroke-opacity: 0; stroke: white; stroke-width: 15px;"/><rect x="-5" y="-5" rx="4" width="916" height="230" class="djs-outline" style="fill: none;"/></g></g><g class="djs-group"><g class="djs-element djs-shape" data-element-id="StartEvent_1" style="display: block;" transform="matrix(1 0 0 1 180 170)"><g class="djs-visual"><circle cx="18" cy="18" r="18" style="stroke-linecap: round; stroke-linejoin: round; stroke: rgb(26, 115, 232); stroke-width: 2px; fill: rgb(230, 244, 255); fill-opacity: 0.95;"/></g><rect class="djs-hit djs-hit-all" x="0" y="0" width="36" height="36" style="fill: none; stroke-opacity: 0; stroke: white; stroke-width: 15px;"/><circle cx="18" cy="18" r="23" class="djs-outline" style="fill: none;"/></g></g><g class="djs-group"><g class="djs-element djs-shape" data-element-id="StartEvent_1_label" style="display: block;" transform="matrix(1 0 0 1 183 206)"><g class="djs-visual"><text lineHeight="1.2" class="djs-label" style="font-family: Arial, sans-serif; font-size: 11px; font-weight: normal; fill: rgb(26, 115, 232);"><tspan x="0" y="9.899999999999999">Шаг 1</tspan></text></g><rect class="djs-hit djs-hit-all" x="0" y="0" width="30" height="14" style="fill: none; stroke-opacity: 0; stroke: white; stroke-width: 15px;"/><rect x="-5" y="-5" rx="4" width="40" height="24" class="djs-outline" style="fill: none;"/></g></g><g class="djs-group"><g class="djs-element djs-shape" data-element-id="Task_2" style="display: block;" transform="matrix(1 0 0 1 180 390)"><g class="djs-visual"><rect x="0" y="0" width="120" height="80" rx="10" ry="10" style="stroke-linecap: round; stroke-linejoin: round; stroke: rgb(15, 157, 88); stroke-width: 2px; fill: rgb(232, 245, 233); fill-opacity: 0.95;"/><text lineHeight="1.2" class="djs-label" style="font-family: Arial, sans-serif; font-size: 12px; font-weight: normal; fill: rgb(15, 157, 88);"><tspan x="44.494140625" y="43.599999999999994">шаг 2</tspan></text></g><rect class="djs-hit djs-hit-all" x="0" y="0" width="120" height="80" style="fill: none; stroke-opacity: 0; stroke: white; stroke-width: 15px;"/><rect x="-5" y="-5" rx="14" width="130" height="90" class="djs-outline" style="fill: none;"/></g></g><g class="djs-group"><g class="djs-element djs-shape" data-element-id="Gateway_3" style="display: block;" transform="matrix(1 0 0 1 410 390)"><g class="djs-visual"><polygon points="25,0 50,25 25,50 0,25" style="stroke-linecap: round; stroke-linejoin: round; stroke: rgb(15, 157, 88); stroke-width: 2px; fill: rgb(232, 245, 233); fill-opacity: 0.95;"/><path d="m 16,15 7.42857142857143,9.714285714285715 -7.42857142857143,9.714285714285715 3.428571428571429,0 5.714285714285715,-7.464228571428572 5.714285714285715,7.464228571428572 3.428571428571429,0 -7.42857142857143,-9.714285714285715 7.42857142857143,-9.714285714285715 -3.428571428571429,0 -5.714285714285715,7.464228571428572 -5.714285714285715,-7.464228571428572 -3.428571428571429,0 z" style="fill: rgb(15, 157, 88); stroke-linecap: round; stroke-linejoin: round; stroke: rgb(15, 157, 88); stroke-width: 1px;"/></g><rect class="djs-hit djs-hit-all" x="0" y="0" width="50" height="50" style="fill: none; stroke-opacity: 0; stroke: white; stroke-width: 15px;"/><rect x="2" y="2" rx="4" width="46" height="46" class="djs-outline" style="transform-box: fill-box; transform: rotate(45deg); transform-origin: center center; fill: none;"/></g></g><g class="djs-group"><g class="djs-element djs-shape" data-element-id="Gateway_3_label" style="display: block;" transform="matrix(1 0 0 1 421 440)"><g class="djs-visual"><text lineHeight="1.2" class="djs-label" style="font-family: Arial, sans-serif; font-size: 11px; font-weight: normal; fill: rgb(15, 157, 88);"><tspan x="0" y="9.899999999999999">шаг 3</tspan></text></g><rect class="djs-hit djs-hit-all" x="0" y="0" width="29" height="14" style="fill: none; stroke-opacity: 0; stroke: white; stroke-width: 15px;"/><rect x="-5" y="-5" rx="4" width="39" height="24" class="djs-outline" style="fill: none;"/></g></g><g class="djs-group"><g class="djs-element djs-shape" data-element-id="Task_4" style="display: block;" transform="matrix(1 0 0 1 410 170)"><g class="djs-visual"><rect x="0" y="0" width="120" height="80" rx="10" ry="10" style="stroke-linecap: round; stroke-linejoin: round; stroke: rgb(26, 115, 232); stroke-width: 2px; fill: rgb(230, 244, 255); fill-opacity: 0.95;"/><text lineHeight="1.2" class="djs-label" style="font-family: Arial, sans-serif; font-size: 12px; font-weight: normal; fill: rgb(26, 115, 232);"><tspan x="44.494140625" y="43.599999999999994">шаг 4</tspan></text></g><rect class="djs-hit djs-hit-all" x="0" y="0" width="120" height="80" style="fill: none; stroke-opacity: 0; stroke: white; stroke-width: 15px;"/><rect x="-5" y="-5" rx="14" width="130" height="90" class="djs-outline" style="fill: none;"/></g></g><g class="djs-group"><g class="djs-element djs-shape" data-element-id="Task_5" style="display: block;" transform="matrix(1 0 0 1 180 610)"><g class="djs-visual"><rect x="0" y="0" width="120" height="80" rx="10" ry="10" style="stroke-linecap: round; stroke-linejoin: round; stroke: rgb(244, 180, 0); stroke-width: 2px; fill: rgb(255, 248, 225); fill-opacity: 0.95;"/><text lineHeight="1.2" class="djs-label" style="font-family: Arial, sans-serif; font-size: 12px; font-weight: normal; fill: rgb(244, 180, 0);"><tspan x="41.1572265625" y="43.599999999999994">шаг 55</tspan></text></g><rect class="djs-hit djs-hit-all" x="0" y="0" width="120" height="80" style="fill: none; stroke-opacity: 0; stroke: white; stroke-width: 15px;"/><rect x="-5" y="-5" rx="14" width="130" height="90" class="djs-outline" style="fill: none;"/></g></g><g class="djs-group"><g class="djs-element djs-shape" data-element-id="EndEvent_6" style="display: block;" transform="matrix(1 0 0 1 640 170)"><g class="djs-visual"><circle cx="18" cy="18" r="18" style="stroke-linecap: round; stroke-linejoin: round; stroke: rgb(26, 115, 232); stroke-width: 4px; fill: rgb(230, 244, 255); fill-opacity: 0.95;"/></g><rect class="djs-hit djs-hit-all" x="0" y="0" width="36" height="36" style="fill: none; stroke-opacity: 0; stroke: white; stroke-width: 15px;"/><circle cx="18" cy="18" r="24" class="djs-outline" style="fill: none;"/></g></g><g class="djs-group"><g class="djs-element djs-shape" data-element-id="EndEvent_6_label" style="display: block;" transform="matrix(1 0 0 1 641 206)"><g class="djs-visual"><text lineHeight="1.2" class="djs-label" style="font-family: Arial, sans-serif; font-size: 11px; font-weight: normal; fill: rgb(26, 115, 232);"><tspan x="0" y="9.899999999999999">шаг 66</tspan></text></g><rect class="djs-hit djs-hit-all" x="0" y="0" width="35" height="14" style="fill: none; stroke-opacity: 0; stroke: white; stroke-width: 15px;"/><rect x="-5" y="-5" rx="4" width="45" height="24" class="djs-outline" style="fill: none;"/></g></g><g class="djs-group"><g class="djs-element djs-connection" data-element-id="Flow_StartEvent_1_Task_2_1" style="display: block;"><g class="djs-visual"><defs><marker id="marker-6x7ancuvj7a5x1t0q3jz7ee99" viewBox="0 0 20 20" refX="11" refY="10" markerWidth="10" markerHeight="10" orient="auto"><path d="M 1 5 L 11 10 L 1 15 Z" style="stroke-linecap: round; stroke-linejoin: round; stroke: rgb(26, 115, 232); stroke-width: 1px; fill: rgb(26, 115, 232);"/></marker></defs><path data-corner-radius="5" style="fill: none; stroke-linecap: round; stroke-linejoin: round; stroke: rgb(26, 115, 232); stroke-width: 2px; marker-end: url('#marker-6x7ancuvj7a5x1t0q3jz7ee99');" d="M216,190L186,391"/></g><path d="M216,190L186,391" class="djs-hit djs-hit-stroke" style="fill: none; stroke-opacity: 0; stroke: white; stroke-width: 15px;"/><rect x="181" y="185" rx="4" width="40" height="211" class="djs-outline" style="fill: none;"/></g></g><g class="djs-group"><g class="djs-element djs-connection" data-element-id="Flow_Task_2_Gateway_3_1" style="display: block;"><g class="djs-visual"><defs><marker id="marker-csxjus2xrxxxsp1e4uhwy57ng" viewBox="0 0 20 20" refX="11" refY="10" markerWidth="10" markerHeight="10" orient="auto"><path d="M 1 5 L 11 10 L 1 15 Z" style="stroke-linecap: round; stroke-linejoin: round; stroke: rgb(15, 157, 88); stroke-width: 1px; fill: rgb(15, 157, 88);"/></marker></defs><path data-corner-radius="5" style="fill: none; stroke-linecap: round; stroke-linejoin: round; stroke: rgb(15, 157, 88); stroke-width: 2px; marker-end: url('#marker-csxjus2xrxxxsp1e4uhwy57ng');" d="M280,390L326.79907800167763,333.8411063979869C328.3995390008388,331.92055319899345,331.9768092690348,331.53043298247854,333.9536185380696,333.0608659649571L423,402"/></g><path d="M280,390L330,330L423,402" class="djs-hit djs-hit-stroke" style="fill: none; stroke-opacity: 0; stroke: white; stroke-width: 15px;"/><rect x="275" y="325" rx="4" width="153" height="82" class="djs-outline" style="fill: none;"/></g></g><g class="djs-group"><g class="djs-element djs-connection" data-element-id="Flow_Gateway_3_Task_4_1" style="display: block;"><g class="djs-visual"><defs><marker id="marker-cacm0v6w1f4y7kt08qo9dpxxe" viewBox="0 0 20 20" refX="11" refY="10" markerWidth="10" markerHeight="10" orient="auto"><path d="M 1 5 L 11 10 L 1 15 Z" style="stroke-linecap: round; stroke-linejoin: round; stroke: rgb(15, 157, 88); stroke-width: 1px; fill: rgb(15, 157, 88);"/></marker></defs><path data-corner-radius="5" style="fill: none; stroke-linecap: round; stroke-linejoin: round; stroke: rgb(15, 157, 88); stroke-width: 2px; marker-end: url('#marker-cacm0v6w1f4y7kt08qo9dpxxe');" d="M431,394L363.97973059690963,343.0268373553961C361.98986529845484,341.51341867769804,359.4378512332531,337.56402201076344,358.8757024665062,335.1280440215269L331.1242975334938,214.8719559784731C330.5621487667469,212.43597798923656,332.5,210,335,210L410,210"/></g><path d="M431,394L360,340L330,210L410,210" class="djs-hit djs-hit-stroke" style="fill: none; stroke-opacity: 0; stroke: white; stroke-width: 15px;"/><rect x="325" y="205" rx="4" width="111" height="194" class="djs-outline" style="fill: none;"/></g></g><g class="djs-group"><g class="djs-element djs-connection" data-element-id="Flow_Gateway_3_EndEvent_6_2" style="display: block;"><g class="djs-visual"><defs><marker id="marker-cysb6gzyivrv84p3y73fo4q2a" viewBox="0 0 20 20" refX="11" refY="10" markerWidth="10" markerHeight="10" orient="auto"><path d="M 1 5 L 11 10 L 1 15 Z" style="stroke-linecap: round; stroke-linejoin: round; stroke: rgb(15, 157, 88); stroke-width: 1px; fill: rgb(15, 157, 88);"/></marker></defs><path data-corner-radius="5" style="fill: none; stroke-linecap: round; stroke-linejoin: round; stroke: rgb(15, 157, 88); stroke-width: 2px; marker-end: url('#marker-cysb6gzyivrv84p3y73fo4q2a');" d="M457,412L545.6358704525877,362.44015845661767C547.8179352262938,361.2200792283088,552.5,360,555,360L615,360C617.5,360,619.8751559576402,357.50311915280537,619.7503119152806,355.0062383056108L610.2496880847194,164.99376169438924C610.1248440423598,162.4968808471946,611.8276381706072,161.70579562590004,613.6552763412143,163.41159125180005L640,188"/></g><path d="M457,412L550,360L620,360L610,160L640,188" class="djs-hit djs-hit-stroke" style="fill: none; stroke-opacity: 0; stroke: white; stroke-width: 15px;"/><rect x="452" y="155" rx="4" width="193" height="262" class="djs-outline" style="fill: none;"/></g></g><g class="djs-group"><g class="djs-element djs-connection" data-element-id="Flow_Task_4_Task_5_1" style="display: block;"><g class="djs-visual"><defs><marker id="marker-27uf4gfdsed5kqw0h4w2zr5n9" viewBox="0 0 20 20" refX="11" refY="10" markerWidth="10" markerHeight="10" orient="auto"><path d="M 1 5 L 11 10 L 1 15 Z" style="stroke-linecap: round; stroke-linejoin: round; stroke: rgb(26, 115, 232); stroke-width: 1px; fill: rgb(26, 115, 232);"/></marker></defs><path data-corner-radius="5" style="fill: none; stroke-linecap: round; stroke-linejoin: round; stroke: rgb(26, 115, 232); stroke-width: 2px; marker-end: url('#marker-27uf4gfdsed5kqw0h4w2zr5n9');" d="M530,210L555.2565835097474,201.5811388300842C557.6282917548738,200.79056941504209,559.2749815117928,202.39256101108367,558.5499630235856,204.78512202216737L461.45003697641437,525.2148779778327C460.7250184882072,527.6074389889163,457.53139842020823,530.3949762527667,455.06279684041647,530.7899525055334L214.93720315958353,569.2100474944666C212.46860157979177,569.6050237472333,209.12219139602902,572.3408229439226,208.24438279205805,574.6816458878452L195,610"/></g><path d="M530,210L560,200L460,530L210,570L195,610" class="djs-hit djs-hit-stroke" style="fill: none; stroke-opacity: 0; stroke: white; stroke-width: 15px;"/><rect x="190" y="195" rx="4" width="375" height="420" class="djs-outline" style="fill: none;"/></g></g><g class="djs-group"><g class="djs-element djs-connection" data-element-id="Flow_Task_5_EndEvent_6_1" style="display: block;"><g class="djs-visual"><defs><marker id="marker-31ehnc7cpn2tmb17awmpymj0r" viewBox="0 0 20 20" refX="11" refY="10" markerWidth="10" markerHeight="10" orient="auto"><path d="M 1 5 L 11 10 L 1 15 Z" style="stroke-linecap: round; stroke-linejoin: round; stroke: rgb(244, 180, 0); stroke-width: 1px; fill: rgb(244, 180, 0);"/></marker></defs><path data-corner-radius="5" style="fill: none; stroke-linecap: round; stroke-linejoin: round; stroke: rgb(244, 180, 0); stroke-width: 2px; marker-end: url('#marker-31ehnc7cpn2tmb17awmpymj0r');" d="M300,666L585.0075926584875,650.2754431636697C587.5037963292438,650.1377215818349,590.4902903378454,647.5485483107727,590.9805806756909,645.0970966215453L609.0194193243091,554.9029033784547C609.5097096621546,552.4514516892273,612.4887386814848,549.7629772684301,614.9774773629698,549.52595453686L815.0225226370302,530.47404546314C817.5112613185152,530.2370227315699,818.8028696732986,527.805261067714,817.6057393465971,525.610522135428L762.3942606534029,424.3894778645719C761.1971303267014,422.194738932286,760,417.5,760,415L760,295C760,292.5,758.7596526541079,287.8293921446888,757.5193053082158,285.6587842893777L682.4806946917842,154.3412157106223C681.2403473458921,152.17060785531115,678.1896551724138,151.72413793103448,676.3793103448276,153.44827586206895L659,170"/></g><path d="M300,666L590,650L610,550L820,530L760,420L760,290L680,150L659,170" class="djs-hit djs-hit-stroke" style="fill: none; stroke-opacity: 0; stroke: white; stroke-width: 15px;"/><rect x="295" y="145" rx="4" width="530" height="526" class="djs-outline" style="fill: none;"/></g></g></svg>