<?xml version="1.0" encoding="utf-8"?>
<!-- created with bpmn-js / http://bpmn.io -->
<!DOCTYPE svg PUBLIC "-//W3C//DTD SVG 1.1//EN" "http://www.w3.org/Graphics/SVG/1.1/DTD/svg11.dtd">
<svg xmlns="http://www.w3.org/2000/svg" xmlns:xlink="http://www.w3.org/1999/xlink" width="1000" height="670" viewBox="25 95 1000 670" version="1.1"><g class="djs-group"><g class="djs-element djs-shape" data-element-id="Lane_3" style="display: block;" transform="matrix(1 0 0 1 30 540)"><g class="djs-visual"><rect x="0" y="0" width="990" height="220" rx="0" ry="0" style="stroke-linecap: round; stroke-linejoin: round; stroke: rgb(244, 180, 0); stroke-width: 1.5px; fill: rgb(255, 248, 225); fill-opacity: 0.25;"/><text lineHeight="1.2" class="djs-label" style="font-family: Arial, sans-serif; font-size: 12px; font-weight: normal; fill: rgb(244, 180, 0);" transform="matrix(-1.83697e-16 -1 1 -1.83697e-16 0 220)"><tspan x="101.126953125" y="18.6">кто</tspan></text></g><rect class="djs-hit djs-hit-no-move" x="0" y="0" width="990" height="220" style="fill: none; stroke-opacity: 0; stroke: white; stroke-width: 15px;"/><rect class="djs-hit djs-hit-click-stroke" x="0" y="0" width="990" height="220" style="fill: none; stroke-opacity: 0; stroke: white; stroke-width: 15px;"/><rect class="djs-hit djs-hit-all" x="0" y="0" width="30" height="220" style="fill: none; stroke-opacity: 0; stroke: white; stroke-width: 15px;"/><rect x="-5" y="-5" rx="4" width="1000" height="230" class="djs-outline" style="fill: none;"/></g></g><g class="djs-group"><g class="djs-element djs-shape" data-element-id="Lane_2" style="display: block;" transform="matrix(1 0 0 1 30 320)"><g class="djs-visual"><rect x="0" y="0" width="990" height="220" rx="0" ry="0" style="stroke-linecap: round; stroke-linejoin: round; stroke: rgb(15, 157, 88); stroke-width: 1.5px; fill: rgb(232, 245, 233); fill-opacity: 0.25;"/><text lineHeight="1.2" class="djs-label" style="font-family: Arial, sans-serif; font-size: 12px; font-weight: normal; fill: rgb(15, 157, 88);" transform="matrix(-1.83697e-16 -1 1 -1.83697e-16 0 220)"><tspan x="96.609375" y="18.6">влад</tspan></text></g><rect class="djs-hit djs-hit-no-move" x="0" y="0" width="990" height="220" style="fill: none; stroke-opacity: 0; stroke: white; stroke-width: 15px;"/><rect class="djs-hit djs-hit-click-stroke" x="0" y="0" width="990" height="220" style="fill: none; stroke-opacity: 0; stroke: white; stroke-width: 15px;"/><rect class="djs-hit djs-hit-all" x="0" y="0" width="30" height="220" style="fill: none; stroke-opacity: 0; stroke: white; stroke-width: 15px;"/><rect x="-5" y="-5" rx="4" width="1000" height="230" class="djs-outline" style="fill: none;"/></g></g><g class="djs-group"><g class="djs-element djs-shape" data-element-id="Lane_1" style="display: block;" transform="matrix(1 0 0 1 30 100)"><g class="djs-visual"><rect x="0" y="0" width="990" height="220" rx="0" ry="0" style="stroke-linecap: round; stroke-linejoin: round; stroke: rgb(26, 115, 232); stroke-width: 1.5px; fill: rgb(230, 244, 255); fill-opacity: 0.25;"/><text lineHeight="1.2" class="djs-label" style="font-family: Arial, sans-serif; font-size: 12px; font-weight: normal; fill: rgb(26, 115, 232);" transform="matrix(-1.83697e-16 -1 1 -1.83697e-16 0 220)"><tspan x="97.09375" y="18.6">даня</tspan></text></g><rect class="djs-hit djs-hit-no-move" x="0" y="0" width="990" height="220" style="fill: none; stroke-opacity: 0; stroke: white; stroke-width: 15px;"/><rect class="djs-hit djs-hit-click-stroke" x="0" y="0" width="990" height="220" style="fill: none; stroke-opacity: 0; stroke: white; stroke-width: 15px;"/><rect class="djs-hit djs-hit-all" x="0" y="0" width="30" height="220" style="fill: none; stroke-opacity: 0; stroke: white; stroke-width: 15px;"/><rect x="-5" y="-5" rx="4" width="1000" height="230" class="djs-outline" style="fill: none;"/></g></g><g class="djs-group"><g class="djs-element djs-shape" data-element-id="StartEvent_1" style="display: block;" transform="matrix(1 0 0 1 180 170)"><g class="djs-visual"><circle cx="18" cy="18" r="18" style="stroke-linecap: round; stroke-linejoin: round; stroke: rgb(26, 115, 232); stroke-width: 2px; fill: rgb(230, 244, 255); fill-opacity: 0.95;"/></g><rect class="djs-hit djs-hit-all" x="0" y="0" width="36" height="36" style="fill: none; stroke-opacity: 0; stroke: white; stroke-width: 15px;"/><circle cx="18" cy="18" r="23" class="djs-outline" style="fill: none;"/></g></g><g class="djs-group"><g class="djs-element djs-shape" data-element-id="StartEvent_1_label" style="display: block;" transform="matrix(1 0 0 1 195 206)"><g class="djs-visual"><text lineHeight="1.2" class="djs-label" style="font-family: Arial, sans-serif; font-size: 11px; font-weight: normal; fill: rgb(26, 115, 232);"><tspan x="0" y="9.899999999999999">1</tspan></text></g><rect class="djs-hit djs-hit-all" x="0" y="0" width="7" height="14" style="fill: none; stroke-opacity: 0; stroke: white; stroke-width: 15px;"/><rect x="-5" y="-5" rx="4" width="17" height="24" class="djs-outline" style="fill: none;"/></g></g><g class="djs-group"><g class="djs-element djs-shape" data-element-id="Task_2" style="display: block;" transform="matrix(1 0 0 1 180 390)"><g class="djs-visual"><rect x="0" y="0" width="120" height="80" rx="10" ry="10" style="stroke-linecap: round; stroke-linejoin: round; stroke: rgb(15, 157, 88); stroke-width: 2px; fill: rgb(232, 245, 233); fill-opacity: 0.95;"/><text lineHeight="1.2" class="djs-label" style="font-family: Arial, sans-serif; font-size: 12px; font-weight: normal; fill: rgb(15, 157, 88);"><tspan x="56.5" y="43.599999999999994">2</tspan></text></g><rect class="djs-hit djs-hit-all" x="0" y="0" width="120" height="80" style="fill: none; stroke-opacity: 0; stroke: white; stroke-width: 15px;"/><rect x="-5" y="-5" rx="14" width="130" height="90" class="djs-outline" style="fill: none;"/></g></g><g class="djs-group"><g class="djs-element djs-shape" data-element-id="Gateway_3" style="display: block;" transform="matrix(1 0 0 1 180 610)"><g class="djs-visual"><polygon points="25,0 50,25 25,50 0,25" style="stroke-linecap: round; stroke-linejoin: round; stroke: rgb(244, 180, 0); stroke-width: 2px; fill: rgb(255, 248, 225); fill-opacity: 0.95;"/><path d="m 16,15 7.42857142857143,9.714285714285715 -7.42857142857143,9.714285714285715 3.428571428571429,0 5.714285714285715,-7.464228571428572 5.714285714285715,7.464228571428572 3.428571428571429,0 -7.42857142857143,-9.714285714285715 7.42857142857143,-9.714285714285715 -3.428571428571429,0 -5.714285714285715,7.464228571428572 -5.714285714285715,-7.464228571428572 -3.428571428571429,0 z" style="fill: rgb(244, 180, 0); stroke-linecap: round; stroke-linejoin: round; stroke: rgb(244, 180, 0); stroke-width: 1px;"/></g><rect class="djs-hit djs-hit-all" x="0" y="0" width="50" height="50" style="fill: none; stroke-opacity: 0; stroke: white; stroke-width: 15px;"/><rect x="2" y="2" rx="4" width="46" height="46" class="djs-outline" style="transform-box: fill-box; transform: rotate(45deg); transform-origin: center center; fill: none;"/></g></g><g class="djs-group"><g class="djs-element djs-shape" data-element-id="Gateway_3_label" style="display: block;" transform="matrix(1 0 0 1 202 660)"><g class="djs-visual"><text lineHeight="1.2" class="djs-label" style="font-family: Arial, sans-serif; font-size: 11px; font-weight: normal; fill: rgb(244, 180, 0);"><tspan x="0" y="9.899999999999999">3</tspan></text></g><rect class="djs-hit djs-hit-all" x="0" y="0" width="7" height="14" style="fill: none; stroke-opacity: 0; stroke: white; stroke-width: 15px;"/><rect x="-5" y="-5" rx="4" width="17" height="24" class="djs-outline" style="fill: none;"/></g></g><g class="djs-group"><g class="djs-element djs-shape" data-element-id="Task_4" style="display: block;" transform="matrix(1 0 0 1 410 170)"><g class="djs-visual"><rect x="0" y="0" width="120" height="80" rx="10" ry="10" style="stroke-linecap: round; stroke-linejoin: round; stroke: rgb(26, 115, 232); stroke-width: 2px; fill: rgb(230, 244, 255); fill-opacity: 0.95;"/><text lineHeight="1.2" class="djs-label" style="font-family: Arial, sans-serif; font-size: 12px; font-weight: normal; fill: rgb(26, 115, 232);"><tspan x="56.5" y="43.599999999999994">4</tspan></text></g><rect class="djs-hit djs-hit-all" x="0" y="0" width="120" height="80" style="fill: none; stroke-opacity: 0; stroke: white; stroke-width: 15px;"/><rect x="-5" y="-5" rx="14" width="130" height="90" class="djs-outline" style="fill: none;"/></g></g><g class="djs-group"><g class="djs-element djs-shape" data-element-id="Task_5" style="display: block;" transform="matrix(1 0 0 1 640 170)"><g class="djs-visual"><rect x="0" y="0" width="120" height="80" rx="10" ry="10" style="stroke-linecap: round; stroke-linejoin: round; stroke: rgb(26, 115, 232); stroke-width: 2px; fill: rgb(230, 244, 255); fill-opacity: 0.95;"/><text lineHeight="1.2" class="djs-label" style="font-family: Arial, sans-serif; font-size: 12px; font-weight: normal; fill: rgb(26, 115, 232);"><tspan x="56.5" y="43.599999999999994">5</tspan></text></g><rect class="djs-hit djs-hit-all" x="0" y="0" width="120" height="80" style="fill: none; stroke-opacity: 0; stroke: white; stroke-width: 15px;"/><rect x="-5" y="-5" rx="14" width="130" height="90" class="djs-outline" style="fill: none;"/></g></g><g class="djs-group"><g class="djs-element djs-shape" data-element-id="Gateway_6" style="display: block;" transform="matrix(1 0 0 1 410 390)"><g class="djs-visual"><polygon points="25,0 50,25 25,50 0,25" style="stroke-linecap: round; stroke-linejoin: round; stroke: rgb(15, 157, 88); stroke-width: 2px; fill: rgb(232, 245, 233); fill-opacity: 0.95;"/><path d="m 16,15 7.42857142857143,9.714285714285715 -7.42857142857143,9.714285714285715 3.428571428571429,0 5.714285714285715,-7.464228571428572 5.714285714285715,7.464228571428572 3.428571428571429,0 -7.42857142857143,-9.714285714285715 7.42857142857143,-9.714285714285715 -3.428571428571429,0 -5.714285714285715,7.464228571428572 -5.714285714285715,-7.464228571428572 -3.428571428571429,0 z" style="fill: rgb(15, 157, 88); stroke-linecap: round; stroke-linejoin: round; stroke: rgb(15, 157, 88); stroke-width: 1px;"/></g><rect class="djs-hit djs-hit-all" x="0" y="0" width="50" height="50" style="fill: none; stroke-opacity: 0; stroke: white; stroke-width: 15px;"/><rect x="2" y="2" rx="4" width="46" height="46" class="djs-outline" style="transform-box: fill-box; transform: rotate(45deg); transform-origin: center center; fill: none;"/></g></g><g class="djs-group"><g class="djs-element djs-shape" data-element-id="Gateway_6_label" style="display: block;" transform="matrix(1 0 0 1 432 440)"><g class="djs-visual"><text lineHeight="1.2" class="djs-label" style="font-family: Arial, sans-serif; font-size: 11px; font-weight: normal; fill: rgb(15, 157, 88);"><tspan x="0" y="9.899999999999999">6</tspan></text></g><rect class="djs-hit djs-hit-all" x="0" y="0" width="7" height="14" style="fill: none; stroke-opacity: 0; stroke: white; stroke-width: 15px;"/><rect x="-5" y="-5" rx="4" width="17" height="24" class="djs-outline" style="fill: none;"/></g></g><g class="djs-group"><g class="djs-element djs-shape" data-element-id="EndEvent_7" style="display: block;" transform="matrix(1 0 0 1 410 610)"><g class="djs-visual"><circle cx="18" cy="18" r="18" style="stroke-linecap: round; stroke-linejoin: round; stroke: rgb(244, 180, 0); stroke-width: 4px; fill: rgb(255, 248, 225); fill-opacity: 0.95;"/></g><rect class="djs-hit djs-hit-all" x="0" y="0" width="36" height="36" style="fill: none; stroke-opacity: 0; stroke: white; stroke-width: 15px;"/><circle cx="18" cy="18" r="24" class="djs-outline" style="fill: none;"/></g></g><g class="djs-group"><g class="djs-element djs-shape" data-element-id="EndEvent_7_label" style="display: block;" transform="matrix(1 0 0 1 425 646)"><g class="djs-visual"><text lineHeight="1.2" class="djs-label" style="font-family: Arial, sans-serif; font-size: 11px; font-weight: normal; fill: rgb(244, 180, 0);"><tspan x="0" y="9.899999999999999">7</tspan></text></g><rect class="djs-hit djs-hit-all" x="0" y="0" width="7" height="14" style="fill: none; stroke-opacity: 0; stroke: white; stroke-width: 15px;"/><rect x="-5" y="-5" rx="4" width="17" height="24" class="djs-outline" style="fill: none;"/></g></g><g class="djs-group"><g class="djs-element djs-shape" data-element-id="EndEvent_8" style="display: block;" transform="matrix(1 0 0 1 640 610)"><g class="djs-visual"><circle cx="18" cy="18" r="18" style="stroke-linecap: round; stroke-linejoin: round; stroke: rgb(244, 180, 0); stroke-width: 4px; fill: rgb(255, 248, 225); fill-opacity: 0.95;"/></g><rect class="djs-hit djs-hit-all" x="0" y="0" width="36" height="36" style="fill: none; stroke-opacity: 0; stroke: white; stroke-width: 15px;"/><circle cx="18" cy="18" r="24" class="djs-outline" style="fill: none;"/></g></g><g class="djs-group"><g class="djs-element djs-shape" data-element-id="EndEvent_8_label" style="display: block;" transform="matrix(1 0 0 1 655 646)"><g class="djs-visual"><text lineHeight="1.2" class="djs-label" style="font-family: Arial, sans-serif; font-size: 11px; font-weight: normal; fill: rgb(244, 180, 0);"><tspan x="0" y="9.899999999999999">8</tspan></text></g><rect class="djs-hit djs-hit-all" x="0" y="0" width="7" height="14" style="fill: none; stroke-opacity: 0; stroke: white; stroke-width: 15px;"/><rect x="-5" y="-5" rx="4" width="17" height="24" class="djs-outline" style="fill: none;"/></g></g><g class="djs-group"><g class="djs-element djs-connection" data-element-id="Flow_StartEvent_1_Task_2_1" style="display: block;"><g class="djs-visual"><defs><marker id="marker-4l5033xof0g7q6ue1q2y4npvh" viewBox="0 0 20 20" refX="11" refY="10" markerWidth="10" markerHeight="10" orient="auto"><path d="M 1 5 L 11 10 L 1 15 Z" style="stroke-linecap: round; stroke-linejoin: round; stroke: rgb(26, 115, 232); stroke-width: 1px; fill: rgb(26, 115, 232);"/></marker></defs><path data-corner-radius="5" style="fill: none; stroke-linecap: round; stroke-linejoin: round; stroke: rgb(26, 115, 232); stroke-width: 2px; marker-end: url('#marker-4l5033xof0g7q6ue1q2y4npvh');" d="M213,198L191.52147817978656,265.237111785016C190.76073908989326,267.618555892508,192.4514516892273,270.49029033784547,194.9029033784546,270.98058067569093L285.0970966215454,289.01941932430907C287.5485483107727,289.50970966215453,288.4502533123484,291.96170466791335,286.9005066246969,293.9234093358267L211,390"/></g><path d="M213,198L190,270L290,290L211,390" class="djs-hit djs-hit-stroke" style="fill: none; stroke-opacity: 0; stroke: white; stroke-width: 15px;"/><rect x="185" y="193" rx="4" width="110" height="202" class="djs-outline" style="fill: none;"/></g></g><g class="djs-group"><g class="djs-element djs-connection" data-element-id="Flow_Task_2_Gateway_3_1" style="display: block;"><g class="djs-visual"><defs><marker id="marker-0ymddunaruqvjg8qznenbkey3" viewBox="0 0 20 20" refX="11" refY="10" markerWidth="10" markerHeight="10" orient="auto"><path d="M 1 5 L 11 10 L 1 15 Z" style="stroke-linecap: round; stroke-linejoin: round; stroke: rgb(15, 157, 88); stroke-width: 1px; fill: rgb(15, 157, 88);"/></marker></defs><path data-corner-radius="5" style="fill: none; stroke-linecap: round; stroke-linejoin: round; stroke: rgb(15, 157, 88); stroke-width: 2px; marker-end: url('#marker-0ymddunaruqvjg8qznenbkey3');" d="M245,470L154.02527918676685,537.0340048097507C152.01263959338343,538.5170024048754,150.75282841984276,542.3839566628353,151.50565683968549,544.7679133256707L180,635"/></g><path d="M245,470L150,540L180,635" class="djs-hit djs-hit-stroke" style="fill: none; stroke-opacity: 0; stroke: white; stroke-width: 15px;"/><rect x="145" y="465" rx="4" width="105" height="175" class="djs-outline" style="fill: none;"/></g></g><g class="djs-group"><g class="djs-element djs-connection" data-element-id="Flow_Gateway_3_Task_4_1" style="display: block;"><g class="djs-visual"><defs><marker id="marker-8102s6bvh1d2rp73ww066in0k" viewBox="0 0 20 20" refX="11" refY="10" markerWidth="10" markerHeight="10" orient="auto"><path d="M 1 5 L 11 10 L 1 15 Z" style="stroke-linecap: round; stroke-linejoin: round; stroke: rgb(244, 180, 0); stroke-width: 1px; fill: rgb(244, 180, 0);"/></marker></defs><path data-corner-radius="5" style="fill: none; stroke-linecap: round; stroke-linejoin: round; stroke: rgb(244, 180, 0); stroke-width: 2px; marker-end: url('#marker-8102s6bvh1d2rp73ww066in0k');" d="M230,635L337.2264990188739,474.1602514716892C338.6132495094369,472.0801257358446,340.7905694150421,467.6282917548737,341.58113883008417,465.25658350974743L368.41886116991583,384.74341649025257C369.2094305849579,382.3717082451263,370.57259833431385,377.56645707916607,371.14519666862776,375.13291415833214L410,210"/></g><path d="M230,635L340,470L370,380L410,210" class="djs-hit djs-hit-stroke" style="fill: none; stroke-opacity: 0; stroke: white; stroke-width: 15px;"/><rect x="225" y="205" rx="4" width="190" height="435" class="djs-outline" style="fill: none;"/></g></g><g class="djs-group"><g class="djs-element djs-connection" data-element-id="Flow_Gateway_3_Task_5_2" style="display: block;"><g class="djs-visual"><defs><marker id="marker-e2zahbuusaen48h66dfgak52b" viewBox="0 0 20 20" refX="11" refY="10" markerWidth="10" markerHeight="10" orient="auto"><path d="M 1 5 L 11 10 L 1 15 Z" style="stroke-linecap: round; stroke-linejoin: round; stroke: rgb(244, 180, 0); stroke-width: 1px; fill: rgb(244, 180, 0);"/></marker></defs><path data-corner-radius="5" style="fill: none; stroke-linecap: round; stroke-linejoin: round; stroke: rgb(244, 180, 0); stroke-width: 2px; marker-end: url('#marker-e2zahbuusaen48h66dfgak52b');" d="M230,635L345.3183541121548,591.755617207942C347.6591770560774,590.877808603971,350.46072133762544,587.5428195326642,350.92144267525094,585.0856390653283L379.07855732474906,434.9143609346716C379.53927866237456,432.45718046733583,381.03450736075297,427.7240838063435,382.06901472150594,425.448167612687L427.93098527849406,324.551832387313C428.96549263924703,322.2759161936565,432.42535625036334,319.39366093740915,434.8507125007267,318.78732187481836L545.1492874992733,291.21267812518164C547.5746437496367,290.60633906259085,551.8685232967091,288.3390904029252,553.7370465934183,286.6781808058504L640,210"/></g><path d="M230,635L350,590L380,430L430,320L550,290L640,210" class="djs-hit djs-hit-stroke" style="fill: none; stroke-opacity: 0; stroke: white; stroke-width: 15px;"/><rect x="225" y="205" rx="4" width="420" height="435" class="djs-outline" style="fill: none;"/></g></g><g class="djs-group"><g class="djs-element djs-connection" data-element-id="Flow_Task_4_Task_5_1" style="display: block;"><g class="djs-visual"><defs><marker id="marker-823kw4zgkxax52gkssiuib5b3" viewBox="0 0 20 20" refX="11" refY="10" markerWidth="10" markerHeight="10" orient="auto"><path d="M 1 5 L 11 10 L 1 15 Z" style="stroke-linecap: round; stroke-linejoin: round; stroke: rgb(26, 115, 232); stroke-width: 1px; fill: rgb(26, 115, 232);"/></marker></defs><path data-corner-radius="5" style="fill: none; stroke-linecap: round; stroke-linejoin: round; stroke: rgb(26, 115, 232); stroke-width: 2px; marker-end: url('#marker-823kw4zgkxax52gkssiuib5b3');" d="M530,210L640,210"/></g><path d="M530,210L640,210" class="djs-hit djs-hit-stroke" style="fill: none; stroke-opacity: 0; stroke: white; stroke-width: 15px;"/><rect x="525" y="205" rx="4" width="120" height="10" class="djs-outline" style="fill: none;"/></g></g><g class="djs-group"><g class="djs-element djs-connection selected" data-element-id="Flow_Task_5_Gateway_6_1" style="display: block;"><g class="djs-visual"><defs><marker id="marker-6r0o2nie4wxbrlhnst5by72po" viewBox="0 0 20 20" refX="11" refY="10" markerWidth="10" markerHeight="10" orient="auto"><path d="M 1 5 L 11 10 L 1 15 Z" style="stroke-linecap: round; stroke-linejoin: round; stroke: rgb(26, 115, 232); stroke-width: 1px; fill: rgb(26, 115, 232);"/></marker></defs><path data-corner-radius="5" style="fill: none; stroke-linecap: round; stroke-linejoin: round; stroke: rgb(26, 115, 232); stroke-width: 2px; marker-end: url('#marker-6r0o2nie4wxbrlhnst5by72po');" d="M700,250L700,365C700,367.5,697.5,370,695,370L440,370C437.5,370,435,372.5,435,375L435,390"/></g><path d="M700,250L700,370L435,370L435,390" class="djs-hit djs-hit-stroke" style="fill: none; stroke-opacity: 0; stroke: white; stroke-width: 15px;"/><rect x="430" y="245" rx="4" width="275" height="150" class="djs-outline" style="fill: none;"/></g></g><g class="djs-group"><g class="djs-element djs-connection" data-element-id="Flow_Gateway_6_EndEvent_7_1" style="display: block;"><g class="djs-visual"><defs><marker id="marker-8yekhqd0z9dhn450skq2alqcr" viewBox="0 0 20 20" refX="11" refY="10" markerWidth="10" markerHeight="10" orient="auto"><path d="M 1 5 L 11 10 L 1 15 Z" style="stroke-linecap: round; stroke-linejoin: round; stroke: rgb(15, 157, 88); stroke-width: 1px; fill: rgb(15, 157, 88);"/></marker></defs><path data-corner-radius="5" style="fill: none; stroke-linecap: round; stroke-linejoin: round; stroke: rgb(15, 157, 88); stroke-width: 2px; marker-end: url('#marker-8yekhqd0z9dhn450skq2alqcr');" d="M460,415L402.3128300334751,525.5670757691727C401.1564150167375,527.7835378845864,402.2360679774998,531.1180339887499,404.4721359549996,532.2360679774998L435.5278640450004,547.7639320225002C437.7639320225002,548.8819660112501,439.0955632646087,552.3306638950468,438.1911265292174,554.6613277900937L414,617"/></g><path d="M460,415L400,530L440,550L414,617" class="djs-hit djs-hit-stroke" style="fill: none; stroke-opacity: 0; stroke: white; stroke-width: 15px;"/><rect x="395" y="410" rx="4" width="70" height="212" class="djs-outline" style="fill: none;"/></g></g><g class="djs-group"><g class="djs-element djs-connection" data-element-id="Flow_Gateway_6_EndEvent_8_2" style="display: block;"><g class="djs-visual"><defs><marker id="marker-39f2kpfz1mzsrv3aj3osabldx" viewBox="0 0 20 20" refX="11" refY="10" markerWidth="10" markerHeight="10" orient="auto"><path d="M 1 5 L 11 10 L 1 15 Z" style="stroke-linecap: round; stroke-linejoin: round; stroke: rgb(15, 157, 88); stroke-width: 1px; fill: rgb(15, 157, 88);"/></marker></defs><path data-corner-radius="5" style="fill: none; stroke-linecap: round; stroke-linejoin: round; stroke: rgb(15, 157, 88); stroke-width: 2px; marker-end: url('#marker-39f2kpfz1mzsrv3aj3osabldx');" d="M460,415L595.8626211280412,507.1924929083137C597.9313105640206,508.5962464541568,602.3408229439226,510.877808603971,604.6816458878452,511.75561720794195L675.3183541121548,538.244382792058C677.6591770560774,539.122191396029,678.9677805135152,542.2769547495989,677.9355610270303,544.5539094991977L646,615"/></g><path d="M460,415L600,510L680,540L646,615" class="djs-hit djs-hit-stroke" style="fill: none; stroke-opacity: 0; stroke: white; stroke-width: 15px;"/><rect x="455" y="410" rx="4" width="230" height="210" class="djs-outline" style="fill: none;"/></g></g></svg>